<svg width="24" height="24" viewBox="0 0 24 24" fill="none" xmlns="http://www.w3.org/2000/svg">
<path d="M2 10.75C2 13.4022 3.05357 15.9457 4.92893 17.8211C6.8043 19.6964 9.34784 20.75 12 20.75C14.6522 20.75 17.1957 19.6964 19.0711 17.8211C20.9464 15.9457 22 13.4022 22 10.75C22 8.09784 20.9464 5.5543 19.0711 3.67893C17.1957 1.80357 14.6522 0.75 12 0.75C9.34784 0.75 6.8043 1.80357 4.92893 3.67893C3.05357 5.5543 2 8.09784 2 10.75Z" fill="#FFE500"/>
<path d="M12 0.75C10.0222 0.75 8.08879 1.33649 6.4443 2.4353C4.79981 3.53412 3.51809 5.0959 2.76121 6.92317C2.00433 8.75043 1.8063 10.7611 2.19215 12.7009C2.578 14.6407 3.53041 16.4225 4.92894 17.8211C6.32746 19.2196 8.10929 20.172 10.0491 20.5579C11.9889 20.9437 13.9996 20.7457 15.8268 19.9888C17.6541 19.2319 19.2159 17.9502 20.3147 16.3057C21.4135 14.6612 22 12.7278 22 10.75C22 8.09784 20.9464 5.5543 19.0711 3.67893C17.1957 1.80357 14.6522 0.75 12 0.75ZM12 19.25C10.1953 19.25 8.43102 18.7148 6.93043 17.7122C5.42983 16.7095 4.26025 15.2844 3.5696 13.617C2.87895 11.9496 2.69825 10.1149 3.05034 8.3448C3.40243 6.57472 4.2715 4.9488 5.54766 3.67265C6.82381 2.3965 8.44973 1.52742 10.2198 1.17533C11.9899 0.823244 13.8246 1.00395 15.492 1.6946C17.1594 2.38525 18.5845 3.55482 19.5872 5.05542C20.5898 6.55602 21.125 8.32025 21.125 10.125C21.125 12.5451 20.1636 14.8661 18.4524 16.5773C16.7411 18.2886 14.4201 19.25 12 19.25Z" fill="#EBCB00"/>
<path d="M9 2.75C9 2.94891 9.31607 3.13968 9.87868 3.28033C10.4413 3.42098 11.2044 3.5 12 3.5C12.7956 3.5 13.5587 3.42098 14.1213 3.28033C14.6839 3.13968 15 2.94891 15 2.75C15 2.55109 14.6839 2.36032 14.1213 2.21967C13.5587 2.07902 12.7956 2 12 2C11.2044 2 10.4413 2.07902 9.87868 2.21967C9.31607 2.36032 9 2.55109 9 2.75Z" fill="#FFF48C"/>
<path opacity="0.15" d="M4 22.75C4 22.9489 4.84285 23.1397 6.34315 23.2803C7.84344 23.421 9.87827 23.5 12 23.5C14.1217 23.5 16.1566 23.421 17.6569 23.2803C19.1571 23.1397 20 22.9489 20 22.75C20 22.5511 19.1571 22.3603 17.6569 22.2197C16.1566 22.079 14.1217 22 12 22C9.87827 22 7.84344 22.079 6.34315 22.2197C4.84285 22.3603 4 22.5511 4 22.75Z" fill="#45413C"/>
<path d="M2 10.75C2 13.4022 3.05357 15.9457 4.92893 17.8211C6.8043 19.6964 9.34784 20.75 12 20.75C14.6522 20.75 17.1957 19.6964 19.0711 17.8211C20.9464 15.9457 22 13.4022 22 10.75C22 8.09784 20.9464 5.5543 19.0711 3.67893C17.1957 1.80357 14.6522 0.75 12 0.75C9.34784 0.75 6.8043 1.80357 4.92893 3.67893C3.05357 5.5543 2 8.09784 2 10.75V10.75Z" stroke="#45413C" stroke-width="0.5" stroke-linecap="round" stroke-linejoin="round"/>
<path d="M19.25 13.25C19.25 13.665 18.69 14 18 14C17.31 14 16.75 13.665 16.75 13.25C16.75 12.835 17.31 12.5 18 12.5C18.69 12.5 19.25 12.835 19.25 13.25Z" fill="#FFAA54"/>
<path d="M4.75 13.25C4.75 13.4489 4.8817 13.6397 5.11612 13.7803C5.35054 13.921 5.66848 14 6 14C6.33152 14 6.64946 13.921 6.88388 13.7803C7.1183 13.6397 7.25 13.4489 7.25 13.25C7.25 13.0511 7.1183 12.8603 6.88388 12.7197C6.64946 12.579 6.33152 12.5 6 12.5C5.66848 12.5 5.35054 12.579 5.11612 12.7197C4.8817 12.8603 4.75 13.0511 4.75 13.25Z" fill="#FFAA54"/>
<path d="M9.5 15.75C9.5 16.8109 9.76339 17.8283 10.2322 18.5784C10.7011 19.3286 11.337 19.75 12 19.75C12.663 19.75 13.2989 19.3286 13.7678 18.5784C14.2366 17.8283 14.5 16.8109 14.5 15.75C14.5 14.6891 14.2366 13.6717 13.7678 12.9216C13.2989 12.1714 12.663 11.75 12 11.75C11.337 11.75 10.7011 12.1714 10.2322 12.9216C9.76339 13.6717 9.5 14.6891 9.5 15.75Z" fill="#FFB0CA" stroke="#45413C" stroke-width="0.5" stroke-linecap="round" stroke-linejoin="round"/>
<path d="M18.705 8.26997C19.475 9.50997 19.365 10.965 18.465 11.525C17.565 12.085 16.215 11.525 15.465 10.29C14.715 9.05497 14.805 7.59997 15.705 7.03997C16.605 6.47997 17.94 7.02997 18.705 8.26997Z" fill="white" stroke="#45413C" stroke-width="0.5" stroke-linecap="round" stroke-linejoin="round"/>
<path d="M5.295 8.26997C4.525 9.50997 4.635 10.965 5.535 11.525C6.435 12.085 7.785 11.525 8.535 10.29C9.285 9.05497 9.195 7.59997 8.295 7.03997C7.395 6.47997 6.06 7.02997 5.295 8.26997Z" fill="white" stroke="#45413C" stroke-width="0.5" stroke-linecap="round" stroke-linejoin="round"/>
<path d="M7.38 22.575C7.36192 22.6942 7.30136 22.8029 7.20948 22.881C7.11759 22.9591 7.00058 23.0013 6.88 23H4C3.92238 23 3.84582 22.9819 3.77639 22.9472C3.70696 22.9125 3.64657 22.8621 3.6 22.8C3.55343 22.7379 3.52195 22.6658 3.50806 22.5894C3.49418 22.513 3.49826 22.4345 3.52 22.36C4.18 20.045 3.355 16.36 2.02 14.06C1.27 12.75 2.885 12.78 3.52 13.15C8 16.185 7.605 21.11 7.38 22.575Z" fill="#FFE500" stroke="#45413C" stroke-width="0.5" stroke-linecap="round" stroke-linejoin="round"/>
<path d="M16.62 22.575C16.6381 22.6942 16.6986 22.8029 16.7905 22.881C16.8824 22.9591 16.9994 23.0013 17.12 23H20C20.0776 23 20.1542 22.9819 20.2236 22.9472C20.293 22.9125 20.3534 22.8621 20.4 22.8C20.4466 22.7379 20.478 22.6658 20.4919 22.5894C20.5058 22.513 20.5017 22.4345 20.48 22.36C19.82 20.045 20.645 16.36 21.98 14.06C22.73 12.75 21.115 12.78 20.48 13.15C16 16.185 16.395 21.11 16.62 22.575Z" fill="#FFE500" stroke="#45413C" stroke-width="0.5" stroke-linecap="round" stroke-linejoin="round"/>
<path d="M12 19.75C12.895 19.75 13.675 19 14.12 17.875C13.675 16.75 12.895 16 12 16C11.105 16 10.325 16.75 9.88 17.875C10.325 19 11.105 19.75 12 19.75Z" fill="#FF866E" stroke="#45413C" stroke-width="0.5" stroke-linecap="round" stroke-linejoin="round"/>
</svg>
