<svg width="349" height="329" viewBox="0 0 349 329" fill="none" xmlns="http://www.w3.org/2000/svg">
<path d="M153.301 69.1732C120.501 50.9794 96.9258 111.775 89.2383 144.447C20.3712 155.978 -14.8632 174.236 63.293 195.697C141.449 217.158 306.41 200.822 327.231 178.4C343.887 160.462 288.9 148.29 259.324 144.447C257.616 140.389 252.149 126.061 243.949 101.204C233.699 70.1341 211.918 59.8841 194.941 69.1732C172.84 81.9857 163.231 73.3372 153.301 69.1732Z" fill="#222130"/>
<path d="M89.2383 213.314C98.9758 214.851 144.973 217.585 166.754 218.759C169.637 237.337 149.777 269.689 116.465 261.681C89.8149 255.275 87.2097 226.767 89.2383 213.314Z" fill="#222130"/>
<path d="M259.324 213.314C249.074 215.364 203.376 217.798 181.809 218.759C179.887 263.923 231.457 274.173 250.035 252.392C264.898 234.967 262.421 219.079 259.324 213.314Z" fill="#222130"/>
</svg>
