<svg width="24" height="24" viewBox="0 0 24 24" fill="none" xmlns="http://www.w3.org/2000/svg">
<path d="M17.2624 10.2458L19.0165 8.49166C19.4244 8.08384 19.6283 7.87992 19.7507 7.6678C20.0831 7.09214 20.0831 6.38291 19.7507 5.80726C19.6283 5.59513 19.4244 5.39122 19.0165 4.9834C18.6087 4.57557 18.4048 4.37166 18.1927 4.24919C17.617 3.91684 16.9078 3.91684 16.3321 4.24919C16.12 4.37166 15.9161 4.57557 15.5083 4.9834L13.7541 6.73753C12.9272 7.56443 12.5138 7.97789 12 7.97789C11.4862 7.97789 11.0728 7.56443 10.2459 6.73753L8.49174 4.9834C8.08391 4.57557 7.88 4.37166 7.66787 4.24919C7.09222 3.91684 6.38299 3.91684 5.80734 4.24919C5.59521 4.37166 5.3913 4.57557 4.98347 4.9834C4.57565 5.39122 4.37174 5.59513 4.24927 5.80726C3.91691 6.38291 3.91691 7.09214 4.24926 7.6678C4.37174 7.87992 4.57565 8.08384 4.98347 8.49166L6.7376 10.2458C7.56451 11.0727 7.97796 11.4862 7.97796 11.9999C7.97796 12.5137 7.56451 12.9271 6.7376 13.7541L4.98347 15.5082C4.57565 15.916 4.37174 16.1199 4.24926 16.332C3.91691 16.9077 3.91691 17.6169 4.24926 18.1926C4.37174 18.4047 4.57565 18.6086 4.98347 19.0165C5.3913 19.4243 5.59521 19.6282 5.80733 19.7507C6.38299 20.083 7.09222 20.083 7.66787 19.7507C7.88 19.6282 8.08391 19.4243 8.49174 19.0165L10.2459 17.2623C11.0728 16.4354 11.4862 16.022 12 16.022C12.5138 16.022 12.9272 16.4354 13.7541 17.2623L15.5083 19.0165C15.9161 19.4243 16.12 19.6282 16.3321 19.7507C16.9078 20.083 17.617 20.083 18.1927 19.7507C18.4048 19.6282 18.6087 19.4243 19.0165 19.0165C19.4244 18.6086 19.6283 18.4047 19.7507 18.1926C20.0831 17.6169 20.0831 16.9077 19.7507 16.332C19.6283 16.1199 19.4244 15.916 19.0165 15.5082L17.2624 13.7541C16.4355 12.9271 16.022 12.5137 16.022 11.9999C16.022 11.4862 16.4355 11.0727 17.2624 10.2458Z" stroke="#2F2F2F" stroke-width="1.5" stroke-linecap="round" stroke-linejoin="round"/>
</svg>
