<svg width="1025" height="1025" viewBox="0 0 1025 1025" fill="none" xmlns="http://www.w3.org/2000/svg">
<path d="M394.155 180.789C280.118 137.03 280.118 225.873 220.447 456.6C-23.5397 499.032 25.5228 528.205 117.018 561.355C208.513 594.505 692.508 619.7 908.648 561.355C1081.56 514.679 910.858 472.07 803.893 456.6C790.633 409.305 761.991 306.495 753.505 273.61C742.896 232.503 734.94 138.356 631.511 180.789C528.082 223.221 508.192 224.547 394.155 180.789Z" fill="#222130" stroke="#222130"/>
<path fill-rule="evenodd" clip-rule="evenodd" d="M220.681 780.147C187.972 727.107 142.181 623.147 220.681 631.634C318.806 642.242 442.125 650.198 511.078 650.198C580.031 650.198 688.764 647.546 745.782 639.59C750.385 638.948 755.049 638.245 759.716 637.541C812.858 629.533 866.425 621.461 835.951 701.912C831.789 712.902 828.316 722.763 825.176 731.678C803.311 793.76 797.591 810.004 687.438 842.47C617.159 865.012 586.661 850.426 557.488 830.536C556.666 829.975 555.852 829.419 555.046 828.868C527.249 809.862 508.481 797.031 464.667 830.536C419.583 865.012 326.762 858.382 220.681 780.147ZM289.633 725.781C285.213 716.057 294.671 698.2 367.867 704.564C459.362 712.521 448.754 731.085 426.212 768.213C403.67 805.342 281.677 768.213 289.633 725.781ZM728.543 735.063C738.709 722.687 740.743 699.26 667.547 704.564C576.052 711.195 569.422 735.063 595.942 768.213C622.462 801.363 713.957 773.517 728.543 735.063Z" fill="#222130"/>
<path d="M220.681 631.634L220.627 632.131L220.681 631.634ZM220.681 780.147L220.255 780.41L220.306 780.492L220.384 780.55L220.681 780.147ZM745.782 639.59L745.713 639.095L745.713 639.095L745.782 639.59ZM759.716 637.541L759.79 638.036L759.79 638.036L759.716 637.541ZM835.951 701.912L836.419 702.09L836.419 702.09L835.951 701.912ZM825.176 731.678L824.704 731.512L824.704 731.512L825.176 731.678ZM687.438 842.47L687.296 841.99L687.285 841.994L687.438 842.47ZM557.488 830.536L557.207 830.949L557.207 830.949L557.488 830.536ZM555.046 828.868L555.328 828.455L555.328 828.455L555.046 828.868ZM464.667 830.536L464.971 830.933L464.971 830.933L464.667 830.536ZM289.633 725.781L290.124 725.873L290.153 725.718L290.088 725.574L289.633 725.781ZM426.212 768.213L425.785 767.954L425.785 767.954L426.212 768.213ZM667.547 704.564L667.511 704.066L667.511 704.066L667.547 704.564ZM728.543 735.063L728.157 734.745L728.105 734.809L728.076 734.885L728.543 735.063ZM595.942 768.213L596.332 767.901L596.332 767.901L595.942 768.213ZM220.734 631.137C201.014 629.005 188.928 633.923 182.547 643.523C176.201 653.072 175.618 667.095 178.486 682.907C184.226 714.559 203.891 753.874 220.255 780.41L221.106 779.885C204.762 753.381 185.177 714.195 179.47 682.729C176.613 666.982 177.256 653.291 183.38 644.077C189.47 634.914 201.098 630.02 220.627 632.131L220.734 631.137ZM511.078 649.698C442.149 649.698 318.849 641.744 220.734 631.137L220.627 632.131C318.762 642.74 442.101 650.698 511.078 650.698V649.698ZM745.713 639.095C688.733 647.045 580.032 649.698 511.078 649.698V650.698C580.029 650.698 688.794 648.046 745.851 640.085L745.713 639.095ZM759.641 637.047C754.974 637.75 750.313 638.453 745.713 639.095L745.851 640.085C750.458 639.442 755.124 638.739 759.79 638.036L759.641 637.047ZM836.419 702.09C844.048 681.949 846.449 667.272 844.863 656.713C843.27 646.106 837.654 639.681 829.388 636.096C821.166 632.53 810.344 631.781 798.306 632.408C786.258 633.035 772.921 635.046 759.641 637.047L759.79 638.036C773.082 636.033 786.368 634.031 798.358 633.407C810.358 632.782 820.987 633.542 828.991 637.013C836.95 640.465 842.334 646.606 843.874 656.862C845.422 667.167 843.092 681.65 835.484 701.735L836.419 702.09ZM825.648 731.844C828.788 722.928 832.258 713.073 836.419 702.09L835.484 701.735C831.319 712.731 827.844 722.597 824.704 731.512L825.648 731.844ZM687.579 842.95C742.647 826.719 771.72 814.517 789.746 798.554C807.793 782.574 814.725 762.858 825.648 731.844L824.704 731.512C813.763 762.58 806.902 782.027 789.084 797.806C771.245 813.602 742.381 825.755 687.296 841.99L687.579 842.95ZM557.207 830.949C571.814 840.908 586.804 849.576 606.967 852.908C627.125 856.24 652.403 854.233 687.59 842.946L687.285 841.994C652.193 853.25 627.083 855.22 607.13 851.922C587.181 848.624 572.335 840.053 557.77 830.123L557.207 830.949ZM554.764 829.28C555.57 829.832 556.384 830.388 557.207 830.949L557.77 830.123C556.948 829.562 556.135 829.006 555.328 828.455L554.764 829.28ZM464.971 830.933C486.835 814.214 502.353 809.131 515.812 810.508C529.305 811.888 540.838 819.759 554.764 829.28L555.328 828.455C541.457 818.971 529.707 810.924 515.914 809.513C502.086 808.099 486.314 813.353 464.364 830.139L464.971 830.933ZM220.384 780.55C273.472 819.702 323.269 840.958 365.464 848.101C407.652 855.243 442.284 848.282 464.971 830.933L464.364 830.139C441.966 847.266 407.645 854.228 365.631 847.115C323.624 840.004 273.97 818.827 220.977 779.745L220.384 780.55ZM367.911 704.066C331.294 700.882 310.523 703.744 299.441 708.682C293.891 711.155 290.724 714.169 289.248 717.252C287.767 720.344 288.019 723.439 289.177 725.988L290.088 725.574C289.036 723.26 288.813 720.477 290.15 717.684C291.491 714.883 294.435 712.007 299.848 709.596C310.688 704.766 331.245 701.882 367.824 705.063L367.911 704.066ZM426.639 768.473C432.268 759.203 437.184 751.039 439.939 743.903C442.694 736.766 443.334 730.533 440.236 725.198C437.153 719.889 430.448 715.615 418.896 712.166C407.327 708.712 390.795 706.056 367.911 704.066L367.824 705.063C390.687 707.051 407.14 709.699 418.61 713.124C430.098 716.554 436.487 720.733 439.371 725.7C442.241 730.642 441.721 736.509 439.006 743.543C436.29 750.579 431.428 758.659 425.785 767.954L426.639 768.473ZM289.141 725.689C287.102 736.566 293.407 747.009 304.127 755.918C314.863 764.84 330.136 772.325 346.338 777.31C362.542 782.296 379.72 784.795 394.28 783.712C408.816 782.631 420.877 777.965 426.639 768.473L425.785 767.954C420.277 777.026 408.635 781.642 394.206 782.715C379.8 783.787 362.75 781.314 346.633 776.354C330.514 771.395 315.371 763.962 304.766 755.149C294.145 746.322 288.186 736.211 290.124 725.873L289.141 725.689ZM667.583 705.063C685.859 703.739 699.414 704.21 709.305 705.845C719.204 707.481 725.385 710.275 728.968 713.552C732.528 716.808 733.556 720.567 733.098 724.269C732.637 727.998 730.662 731.696 728.157 734.745L728.93 735.38C731.508 732.241 733.599 728.37 734.091 724.392C734.586 720.386 733.454 716.3 729.643 712.815C725.856 709.351 719.457 706.51 709.468 704.858C699.472 703.206 685.832 702.738 667.511 704.066L667.583 705.063ZM596.332 767.901C589.719 759.634 585.214 751.995 583.562 745.099C581.917 738.235 583.094 732.11 587.861 726.777C592.658 721.412 601.127 716.804 614.165 713.126C627.193 709.451 644.726 706.719 667.583 705.063L667.511 704.066C644.62 705.724 627.013 708.463 613.894 712.164C600.785 715.862 592.099 720.536 587.116 726.11C582.104 731.717 580.878 738.189 582.589 745.332C584.293 752.441 588.905 760.218 595.551 768.525L596.332 767.901ZM728.076 734.885C724.48 744.364 716.119 753.243 705.119 760.714C694.127 768.179 680.546 774.208 666.587 778.007C652.625 781.807 638.312 783.371 625.855 781.93C613.394 780.488 602.85 776.048 596.332 767.901L595.551 768.525C602.294 776.954 613.132 781.464 625.74 782.923C638.354 784.382 652.798 782.797 666.849 778.972C680.902 775.147 694.587 769.076 705.681 761.541C716.767 754.011 725.313 744.988 729.011 735.24L728.076 734.885Z" fill="#222130"/>
</svg>
